<?xml version="1.0" encoding="UTF-8"?>
<svg version="1.1" xmlns="http://www.w3.org/2000/svg" width="90" height="105">
<path d="M0 0 C6.37129291 4.90099455 11.42120467 10.69998139 13.18359375 18.6796875 C13.24546875 19.8965625 13.30734375 21.1134375 13.37109375 22.3671875 C14.32177769 26.24305281 14.91491244 26.50659423 18.18359375 28.4921875 C18.90546875 28.86988281 19.62734375 29.24757812 20.37109375 29.63671875 C22.18359375 30.6796875 22.18359375 30.6796875 23.18359375 32.6796875 C23.75898 39.69939981 23.75898 39.69939981 21.49609375 43.5546875 C19.18359375 45.6796875 19.18359375 45.6796875 16.55859375 46.4296875 C14.01926522 47.41187276 14.01926522 47.41187276 13.5625 49.62109375 C13.26460826 51.22127328 12.97441843 52.82290317 12.69140625 54.42578125 C11.95006054 57.71621568 10.65237168 59.41108075 8.18359375 61.6796875 C5.88186289 62.90232733 3.64375818 63.78078127 1.18359375 64.6796875 C1.86164062 64.86402344 2.5396875 65.04835938 3.23828125 65.23828125 C12.01241453 67.97260256 18.81983859 72.42875514 23.84765625 80.27734375 C25.1021673 82.70933447 26.18279317 85.13417298 27.18359375 87.6796875 C27.63734375 88.7521875 28.09109375 89.8246875 28.55859375 90.9296875 C29.30294018 94.20481177 29.06405476 96.45133048 28.18359375 99.6796875 C25.65927849 102.20400276 24.08153228 101.9272509 20.6373291 101.96185303 C19.86377075 101.95937561 19.0902124 101.95689819 18.29321289 101.9543457 C17.47843979 101.95945663 16.66366669 101.96456757 15.82420349 101.96983337 C13.1223116 101.98376965 10.42067363 101.98276957 7.71875 101.98046875 C5.84549362 101.98435353 3.97223811 101.98868774 2.09898376 101.99345398 C-1.83109388 102.00092492 -5.76108171 102.00061865 -9.69116211 101.99536133 C-14.7332229 101.98956621 -19.77491642 102.00649447 -24.81691647 102.029706 C-28.68675393 102.04442185 -32.55650251 102.04531797 -36.42636299 102.04219627 C-38.28554576 102.04271059 -40.14473335 102.04796896 -42.00388908 102.05800819 C-44.60171396 102.07031352 -47.19881795 102.06361671 -49.79663086 102.05200195 C-50.56816498 102.05964569 -51.3396991 102.06728943 -52.13461304 102.07516479 C-57.31025814 102.02389017 -57.31025814 102.02389017 -59.78639221 100.3400116 C-61.57701716 97.45362594 -61.40567026 94.89230955 -60.81640625 91.6796875 C-58.02216558 82.37848823 -53.61356993 74.15798571 -45.1015625 69.05078125 C-40.20513597 66.69324255 -35.31090943 64.57601763 -29.81640625 64.6796875 C-27.67677206 65.51036901 -25.73132311 66.5047627 -23.7265625 67.62109375 C-19.26307229 70.09472534 -14.9080408 71.35857211 -9.81640625 70.6796875 C-7.90383913 68.79890877 -7.90383913 68.79890877 -6.81640625 66.6796875 C-7.37328125 67.1953125 -7.93015625 67.7109375 -8.50390625 68.2421875 C-10.81640625 69.6796875 -10.81640625 69.6796875 -13.50390625 69.4296875 C-15.81640625 68.6796875 -15.81640625 68.6796875 -16.81640625 67.6796875 C-16.94140625 65.1796875 -16.94140625 65.1796875 -16.81640625 62.6796875 C-14.94757062 60.81085187 -11.76882549 61.10871803 -9.25390625 60.8046875 C-1.17931121 59.79894949 -1.17931121 59.79894949 6.18359375 56.6796875 C7.4910478 53.72857692 8.08723498 50.9044945 8.18359375 47.6796875 C7.85359375 47.3496875 7.52359375 47.0196875 7.18359375 46.6796875 C7.14500233 44.99126566 7.17198212 43.30126188 7.2265625 41.61328125 C7.24783203 40.56978516 7.26910156 39.52628906 7.29101562 38.45117188 C7.34375225 36.25552747 7.40855089 34.06013442 7.48632812 31.86523438 C7.61585206 24.0314348 6.4841874 18.85879736 1.61328125 12.69140625 C-4.41720993 7.55488236 -10.99294999 5.25380309 -18.94140625 5.7421875 C-25.38998357 6.6937829 -30.02069313 8.88397438 -34.62890625 13.4921875 C-39.89446042 21.16485215 -40.19222328 26.90531838 -39.94140625 36.0546875 C-39.89827342 38.22908974 -39.85899018 40.40357298 -39.82421875 42.578125 C-39.7998877 43.53380371 -39.77555664 44.48948242 -39.75048828 45.47412109 C-39.81640625 47.6796875 -39.81640625 47.6796875 -40.81640625 48.6796875 C-42.4825774 48.72032582 -44.1502872 48.7224085 -45.81640625 48.6796875 C-46.31140625 47.1946875 -46.31140625 47.1946875 -46.81640625 45.6796875 C-47.74453125 45.5971875 -48.67265625 45.5146875 -49.62890625 45.4296875 C-52.81640625 44.6796875 -52.81640625 44.6796875 -54.69140625 43.0546875 C-56.28405076 39.69243798 -56.2682752 37.3591918 -55.81640625 33.6796875 C-54.12890625 30.8046875 -54.12890625 30.8046875 -51.81640625 28.6796875 C-49.171875 28.046875 -49.171875 28.046875 -46.81640625 27.6796875 C-46.7184375 26.90625 -46.62046875 26.1328125 -46.51953125 25.3359375 C-45.0888955 15.37081952 -43.02398303 8.63928266 -34.9921875 2.22265625 C-24.9504288 -4.89851913 -10.89264382 -6.50252262 0 0 Z " fill="#EF8605" transform="translate(60.81640625,3.3203125)"/>
<path d="M0 0 C4.9062518 4.26580868 6.75648364 9.3184884 7.3359375 15.69921875 C7.45159293 27.50763861 5.72819915 37.02111763 -2 46.46484375 C-4 48 -4 48 -6.3125 48.19140625 C-8.6875 47.8125 -8.6875 47.8125 -10.9765625 47.2734375 C-13.2591505 46.72305688 -13.2591505 46.72305688 -15.5625 48.9375 C-16.036875 49.618125 -16.51125 50.29875 -17 51 C-22.9338573 49.69744596 -26.40280566 46.72917857 -30 42 C-35.50936928 31.97266465 -37.88220232 21.92662131 -35.46875 10.48046875 C-32.85190939 3.04238376 -28.80898505 -0.59550748 -22 -4 C-13.97199161 -7.10761615 -6.83248214 -4.48050895 0 0 Z " fill="#EF8604" transform="translate(59,16)"/>
<path d="M0 0 C6.37129291 4.90099455 11.42120467 10.69998139 13.18359375 18.6796875 C13.24546875 19.8965625 13.30734375 21.1134375 13.37109375 22.3671875 C14.32177769 26.24305281 14.91491244 26.50659423 18.18359375 28.4921875 C18.90546875 28.86988281 19.62734375 29.24757812 20.37109375 29.63671875 C22.18359375 30.6796875 22.18359375 30.6796875 23.18359375 32.6796875 C23.75898 39.69939981 23.75898 39.69939981 21.49609375 43.5546875 C19.18359375 45.6796875 19.18359375 45.6796875 16.55859375 46.4296875 C14.01926522 47.41187276 14.01926522 47.41187276 13.5625 49.62109375 C13.26420239 51.2234535 12.96870124 52.82633598 12.67578125 54.4296875 C11.91995388 57.88489834 10.88532317 59.37333312 8.18359375 61.6796875 C5.47337781 62.87132213 2.74977502 63.8445886 -0.0625 64.76953125 C-2.35399009 65.5268606 -4.49860255 66.3695823 -6.69140625 67.3671875 C-9.47313511 68.53551362 -11.81267776 69.42222506 -14.81640625 69.6796875 C-16.81640625 67.6796875 -16.81640625 67.6796875 -17.00390625 65.1171875 C-16.81640625 62.6796875 -16.81640625 62.6796875 -15.81640625 61.6796875 C-13.633725 61.35391418 -11.44481351 61.06954797 -9.25390625 60.8046875 C-1.17931121 59.79894949 -1.17931121 59.79894949 6.18359375 56.6796875 C7.4910478 53.72857692 8.08723498 50.9044945 8.18359375 47.6796875 C7.85359375 47.3496875 7.52359375 47.0196875 7.18359375 46.6796875 C7.14500233 44.99126566 7.17198212 43.30126188 7.2265625 41.61328125 C7.24783203 40.56978516 7.26910156 39.52628906 7.29101562 38.45117188 C7.34375225 36.25552747 7.40855089 34.06013442 7.48632812 31.86523438 C7.61585206 24.0314348 6.4841874 18.85879736 1.61328125 12.69140625 C-4.41720993 7.55488236 -10.99294999 5.25380309 -18.94140625 5.7421875 C-25.38998357 6.6937829 -30.02069313 8.88397438 -34.62890625 13.4921875 C-39.89446042 21.16485215 -40.19222328 26.90531838 -39.94140625 36.0546875 C-39.89827342 38.22908974 -39.85899018 40.40357298 -39.82421875 42.578125 C-39.7998877 43.53380371 -39.77555664 44.48948242 -39.75048828 45.47412109 C-39.81640625 47.6796875 -39.81640625 47.6796875 -40.81640625 48.6796875 C-42.4825774 48.72032582 -44.1502872 48.7224085 -45.81640625 48.6796875 C-46.31140625 47.1946875 -46.31140625 47.1946875 -46.81640625 45.6796875 C-47.74453125 45.5971875 -48.67265625 45.5146875 -49.62890625 45.4296875 C-52.81640625 44.6796875 -52.81640625 44.6796875 -54.69140625 43.0546875 C-56.28405076 39.69243798 -56.2682752 37.3591918 -55.81640625 33.6796875 C-54.12890625 30.8046875 -54.12890625 30.8046875 -51.81640625 28.6796875 C-49.171875 28.046875 -49.171875 28.046875 -46.81640625 27.6796875 C-46.7184375 26.90625 -46.62046875 26.1328125 -46.51953125 25.3359375 C-45.0888955 15.37081952 -43.02398303 8.63928266 -34.9921875 2.22265625 C-24.9504288 -4.89851913 -10.89264382 -6.50252262 0 0 Z " fill="#FFFFFF" transform="translate(60.81640625,3.3203125)"/>
</svg>
