<?xml version="1.0" encoding="UTF-8"?>
<svg version="1.1" xmlns="http://www.w3.org/2000/svg" width="116" height="105">
<path d="M0 0 C11.69408293 -0.68788723 19.04451742 -0.84746677 29.11987305 5.07299805 C35.33900677 8.58004014 40.71615955 8.84612265 47.76953125 8.76953125 C51 9 51 9 52.94140625 10.328125 C54 12 54 12 54.125 14.9375 C52.87475879 18.34093441 51.61737489 19.62164602 48.38671875 21.25390625 C43.4141095 22.8083553 38.17583218 22.84433587 33 23 C33 23.99 33 24.98 33 26 C35.37846433 25.77002126 37.75061266 25.51678509 40.125 25.25 C41.12273437 25.1571875 41.12273437 25.1571875 42.140625 25.0625 C47.06157945 24.48356418 50.23197858 23.21100956 54 20 C54.43957031 19.02804688 54.87914062 18.05609375 55.33203125 17.0546875 C57.76959261 12.59058215 61.20228651 11.25701741 65.6875 9.125 C66.46544922 8.7228125 67.24339844 8.320625 68.04492188 7.90625 C73.30667413 5.32584105 77.14798641 4.46858082 83 5 C85.4375 6.0625 85.4375 6.0625 87 8 C88.01605131 11.65778471 88.48252299 13.91866252 86.9140625 17.43359375 C84.5363885 20.62161787 81.74435668 22.5769322 78.4375 24.6875 C77.45426758 25.32715698 77.45426758 25.32715698 76.45117188 25.97973633 C69.21970526 30.6131373 61.76540223 34.83635048 54.17382812 38.84814453 C52.76601952 39.59410601 51.36326375 40.34971561 49.96679688 41.11669922 C40.49282836 46.29703486 31.49930779 49.39652613 20.6171875 46.328125 C18.34135502 45.37076374 16.17097063 44.17594242 14 43 C9.38 40.69 4.76 38.38 0 36 C0 24.12 0 12.24 0 0 Z " fill="#F08604" transform="translate(28,58)"/>
<path d="M0 0 C4.40983202 2.53124358 7.02112732 5.71970687 8.75 10.5 C9.92826984 17.75730807 8.82425458 22.50844914 4.75 28.5 C3.6880106 30.87385867 2.83379698 33.19704169 2.140625 35.703125 C0.33806818 41.91193182 0.33806818 41.91193182 -2.375 44.625 C-6.43038346 45.85924714 -10.20443371 45.82439827 -14.25 44.5 C-17.76059354 41.73046198 -18.83075879 39.44301462 -19.75 35.125 C-20.89994346 30.38622199 -22.34655416 27.37126113 -25.25 23.5 C-27.0414557 18.12563291 -26.96176628 13.43205434 -24.625 8.3125 C-19.46990642 -1.00702862 -9.79716828 -4.22003264 0 0 Z M-13.25 28.5 C-13.25 29.82 -13.25 31.14 -13.25 32.5 C-10.28 32.5 -7.31 32.5 -4.25 32.5 C-4.25 31.18 -4.25 29.86 -4.25 28.5 C-7.22 28.5 -10.19 28.5 -13.25 28.5 Z " fill="#F08604" transform="translate(86.25,12.5)"/>
<path d="M0 0 C7.92 0 15.84 0 24 0 C24 13.86 24 27.72 24 42 C16.08 42 8.16 42 0 42 C0 28.14 0 14.28 0 0 Z " fill="#F08604" transform="translate(0,55)"/>
<path d="M0 0 C0.86625 0.37125 0.86625 0.37125 1.75 0.75 C2.08 2.4 2.41 4.05 2.75 5.75 C0.5 7.8125 0.5 7.8125 -2.25 9.75 C-4.5625 9.5 -4.5625 9.5 -6.25 8.75 C-6.62010337 5.4190697 -6.52461204 4.12268777 -4.5 1.375 C-2.25 -0.25 -2.25 -0.25 0 0 Z " fill="#FFFFFF" transform="translate(98.25,5.25)"/>
<path d="M0 0 C3.7726764 0.53895377 5.68212991 1.99535358 8 5 C7.75 7.25 7.75 7.25 7 9 C5.3125 9.8125 5.3125 9.8125 3 10 C0.25 7.5625 0.25 7.5625 -2 5 C-1.34 3.35 -0.68 1.7 0 0 Z " fill="#FFFFFF" transform="translate(56,5)"/>
<path d="M0 0 C3 -0.3125 3 -0.3125 6 0 C6.66 0.66 7.32 1.32 8 2 C7.46428571 5.53571429 7.46428571 5.53571429 6 7 C4.00041636 7.04080783 1.99954746 7.04254356 0 7 C-0.66 5.68 -1.32 4.36 -2 3 C-1.34 2.01 -0.68 1.02 0 0 Z " fill="#FFFFFF" transform="translate(99,25)"/>
<path d="M0 0 C0.66 0.66 1.32 1.32 2 2 C1.625 4.625 1.625 4.625 1 7 C-1.33294775 7.04241723 -3.66702567 7.04092937 -6 7 C-7 6 -7 6 -7.0625 3.4375 C-7.041875 2.633125 -7.02125 1.82875 -7 1 C-4.48718205 -0.25640898 -2.78302919 -0.20872719 0 0 Z " fill="#FFFFFF" transform="translate(56,25)"/>
<path d="M0 0 C1.66611905 -0.042721 3.33382885 -0.04063832 5 0 C6 1 6 1 6.0625 4.5625 C6.041875 5.696875 6.02125 6.83125 6 8 C3.625 8.625 3.625 8.625 1 9 C0.34 8.34 -0.32 7.68 -1 7 C-0.625 3.375 -0.625 3.375 0 0 Z " fill="#FFFFFF" transform="translate(75,0)"/>
</svg>
