<svg width="32" height="32" viewBox="0 0 32 32" fill="none" xmlns="http://www.w3.org/2000/svg">
<g clip-path="url(#clip0_240_871)">
<path d="M31.7286 16C31.7286 7.16348 24.6414 3.8147e-05 15.8988 3.8147e-05C7.15622 3.8147e-05 0.0689697 7.16348 0.0689697 16C0.0689697 23.9861 5.85771 30.6053 13.4254 31.8057V20.625H9.4061V16H13.4254V12.475C13.4254 8.46504 15.7887 6.25004 19.4046 6.25004C21.1365 6.25004 22.948 6.56254 22.948 6.56254V10.5H20.9519C18.9855 10.5 18.3722 11.7334 18.3722 12.9987V16H22.7625L22.0607 20.625H18.3722V31.8057C25.9399 30.6053 31.7286 23.9861 31.7286 16Z" fill="#F08705"/>
<path d="M22.0607 20.625L22.7625 16H18.3722V12.9987C18.3722 11.7333 18.9855 10.5 20.9519 10.5H22.948V6.5625C22.948 6.5625 21.1365 6.25 19.4046 6.25C15.7887 6.25 13.4254 8.465 13.4254 12.475V16H9.4061V20.625H13.4254V31.8056C14.2313 31.9334 15.0573 32 15.8988 32C16.7403 32 17.5663 31.9334 18.3722 31.8056V20.625H22.0607Z" fill="white"/>
</g>
<defs>
<clipPath id="clip0_240_871">
<rect width="32" height="32" fill="white"/>
</clipPath>
</defs>
</svg>
