<svg width="110" height="110" viewBox="0 0 110 110" fill="none" xmlns="http://www.w3.org/2000/svg">
<path opacity="0.4" d="M68.75 18.3334H41.25C28.6 18.3334 18.3333 28.6 18.3333 41.25V68.75C18.3333 81.4 28.6 91.6667 41.25 91.6667H68.75C81.4 91.6667 91.6666 81.4 91.6666 68.75V41.25C91.6666 28.6 81.4 18.3334 68.75 18.3334ZM79.1083 65.3584C79.1083 72.9667 72.9666 79.1084 65.3583 79.1084H44.6416C37.0333 79.1084 30.8916 72.9667 30.8916 65.3584V44.6417C30.8916 37.0334 37.0333 30.8917 44.6416 30.8917H65.3125C72.9208 30.8917 79.0625 37.0334 79.0625 44.6417V65.3584H79.1083Z" fill="#F08705"/>
<path d="M41.525 12.6041V18.3333H41.25C38.9584 18.3333 36.7584 18.6541 34.65 19.2958V12.6041C34.65 10.725 36.1625 9.16663 38.0875 9.16663C39.9667 9.16663 41.525 10.725 41.525 12.6041Z" fill="#F08705"/>
<path d="M58.4375 12.6041V18.3333H51.5625V12.6041C51.5625 10.725 53.1208 9.16663 55 9.16663C56.8792 9.16663 58.4375 10.725 58.4375 12.6041Z" fill="#F08705"/>
<path d="M75.3958 12.6041V19.2958C73.2875 18.6541 71.0416 18.3333 68.75 18.3333H68.5208V12.6041C68.5208 10.725 70.0791 9.16663 71.9583 9.16663C73.8375 9.16663 75.3958 10.725 75.3958 12.6041Z" fill="#F08705"/>
<path d="M100.833 38.0416C100.833 39.9666 99.3209 41.4791 97.3959 41.4791H91.6667V41.25C91.6667 38.9583 91.3459 36.7125 90.7042 34.6041H97.3959C99.3209 34.6041 100.833 36.1625 100.833 38.0416Z" fill="#F08705"/>
<path d="M100.833 55C100.833 56.8792 99.3208 58.4375 97.3958 58.4375H91.6666V51.5625H97.3958C99.3208 51.5625 100.833 53.075 100.833 55Z" fill="#F08705"/>
<path d="M100.833 71.9584C100.833 73.8375 99.3209 75.3959 97.3959 75.3959H90.7042C91.3459 73.2875 91.6667 71.0417 91.6667 68.75V68.5209H97.3959C99.3209 68.5209 100.833 70.0334 100.833 71.9584Z" fill="#F08705"/>
<path d="M75.3958 90.7042V97.3959C75.3958 99.2751 73.8375 100.833 71.9583 100.833C70.0791 100.833 68.5208 99.2751 68.5208 97.3959V91.6667H68.75C71.0416 91.6667 73.2875 91.3459 75.3958 90.7042Z" fill="#F08705"/>
<path d="M58.4833 91.6666V97.3958C58.4833 99.275 56.925 100.833 55.0458 100.833C53.1208 100.833 51.6083 99.275 51.6083 97.3958V91.6666H58.4833Z" fill="#F08705"/>
<path d="M41.525 91.6667V97.3959C41.525 99.2751 39.9667 100.833 38.0875 100.833C36.1625 100.833 34.65 99.2751 34.65 97.3959V90.7042C36.7584 91.3459 38.9584 91.6667 41.25 91.6667H41.525Z" fill="#F08705"/>
<path d="M19.2959 34.6041C18.6542 36.7125 18.3334 38.9583 18.3334 41.25V41.4791H12.6042C10.725 41.4791 9.16669 39.9666 9.16669 38.0416C9.16669 36.1625 10.725 34.6041 12.6042 34.6041H19.2959Z" fill="#F08705"/>
<path d="M18.3334 51.5625V58.4375H12.6042C10.725 58.4375 9.16669 56.8792 9.16669 55C9.16669 53.075 10.725 51.5625 12.6042 51.5625H18.3334Z" fill="#F08705"/>
<path d="M19.2959 75.3959H12.6042C10.725 75.3959 9.16669 73.8375 9.16669 71.9584C9.16669 70.0334 10.725 68.5209 12.6042 68.5209H18.3334V68.75C18.3334 71.0417 18.6542 73.2875 19.2959 75.3959Z" fill="#F08705"/>
<path d="M79.1083 44.6417V65.3126C79.1083 72.9209 72.9667 79.0626 65.3583 79.0626H44.6417C37.0333 79.0626 30.8917 72.9209 30.8917 65.3126V44.6417C30.8917 37.0334 37.0333 30.8917 44.6417 30.8917H65.3125C72.9208 30.8917 79.1083 37.0792 79.1083 44.6417Z" fill="#F08705"/>
</svg>
