<?xml version="1.0" encoding="UTF-8"?>
<svg version="1.1" xmlns="http://www.w3.org/2000/svg" width="107" height="105">
<path d="M0 0 C1.32 0.66 2.64 1.32 4 2 C5.58034628 2.11556954 7.16548381 2.17488443 8.75 2.1875 C14.93200866 2.67075436 17.78443329 5.78443329 22 10 C23.31707867 11.02131364 24.64619956 12.02788779 26 13 C26.60328125 12.37351562 27.2065625 11.74703125 27.828125 11.1015625 C28.62734375 10.28429688 29.4265625 9.46703125 30.25 8.625 C31.03890625 7.81289063 31.8278125 7.00078125 32.640625 6.1640625 C35.36747621 3.66294401 37.33020095 2.10081806 41.0703125 1.875 C41.74835938 1.91625 42.42640625 1.9575 43.125 2 C44.40375 2 45.6825 2 47 2 C47.66 1.34 48.32 0.68 49 0 C54.38040545 0.45494791 57.72367799 5.21107457 61.3125 8.8125 C62.06595703 9.53759766 62.81941406 10.26269531 63.59570312 11.00976562 C64.30275391 11.71423828 65.00980469 12.41871094 65.73828125 13.14453125 C66.38837158 13.78753174 67.03846191 14.43053223 67.70825195 15.09301758 C69 17 69 17 68.73510742 19.0612793 C68.37122925 20.02094604 68.37122925 20.02094604 68 21 C67.48912775 23.93751544 67.0093853 26.75632972 66.89453125 29.73828125 C65.59219601 34.48697089 62.68393477 36.97068144 59.1875 40.3125 C58.55779297 40.94478516 57.92808594 41.57707031 57.27929688 42.22851562 C52.12946044 47.27027575 52.12946044 47.27027575 48 48 C48 45.36 48 42.72 48 40 C47.67 40 47.34 40 47 40 C47.01571045 40.88260498 47.0314209 41.76520996 47.04760742 42.67456055 C47.09887998 45.96400886 47.13641917 49.25302961 47.16479492 52.54272461 C47.1798376 53.96369141 47.20027704 55.38461213 47.22631836 56.80541992 C47.26290347 58.85346886 47.27977097 60.9009015 47.29296875 62.94921875 C47.3086792 64.17987061 47.32438965 65.41052246 47.34057617 66.6784668 C46.90293449 70.94664967 45.51701442 73.599679 42.375 76.5 C40.49225573 78.29390437 40.49225573 78.29390437 40 83 C30.76 83 21.52 83 12 83 C11.34 80.69 10.68 78.38 10 76 C8.71029297 74.86498047 8.71029297 74.86498047 7.39453125 73.70703125 C3.79672477 69.63969048 4.44714668 65.91980697 4.6875 60.6875 C4.71005859 59.75615234 4.73261719 58.82480469 4.75585938 57.86523438 C4.81457922 55.5751604 4.89663142 53.28842125 5 51 C4.41951904 50.74404053 3.83903809 50.48808105 3.2409668 50.22436523 C0.78159936 48.88067554 -0.87262787 47.38604067 -2.85546875 45.41015625 C-3.55994141 44.70826172 -4.26441406 44.00636719 -4.99023438 43.28320312 C-5.71533203 42.55037109 -6.44042969 41.81753906 -7.1875 41.0625 C-8.29254883 39.96905273 -8.29254883 39.96905273 -9.41992188 38.85351562 C-10.12052734 38.15033203 -10.82113281 37.44714844 -11.54296875 36.72265625 C-12.18258545 36.08078369 -12.82220215 35.43891113 -13.48120117 34.77758789 C-16.36736367 31.3996504 -16.04524705 28.29932876 -15.83984375 24.03515625 C-15.9063143 21.56126243 -15.9063143 21.56126243 -18 18 C-12.06 12.06 -6.12 6.12 0 0 Z M15 20 C17.97 20.495 17.97 20.495 21 21 C20.67 20.01 20.34 19.02 20 18 C18.15953612 18 16.60370406 19.17228177 15 20 Z M31 20 C31.33 20.99 31.66 21.98 32 23 C33.98 22.67 35.96 22.34 38 22 C38 21.67 38 21.34 38 21 C35.69 20.67 33.38 20.34 31 20 Z M39 23 C40 25 40 25 40 25 Z M21 25 C21 33.58 21 42.16 21 51 C21.33 51 21.66 51 22 51 C22 42.42 22 33.84 22 25 C21.67 25 21.34 25 21 25 Z M30 26 C30 34.58 30 43.16 30 52 C30.33 52 30.66 52 31 52 C31 43.42 31 34.84 31 26 C30.67 26 30.34 26 30 26 Z M40 26 C40 28.64 40 31.28 40 34 C40.66 33.67 41.32 33.34 42 33 C41.67 30.69 41.34 28.38 41 26 C40.67 26 40.34 26 40 26 Z M10 34 C10.66 34.66 11.32 35.32 12 36 C12 35.34 12 34.68 12 34 C11.34 34 10.68 34 10 34 Z M39 35 C39 40.94 39 46.88 39 53 C39.33 53 39.66 53 40 53 C40 47.06 40 41.12 40 35 C39.67 35 39.34 35 39 35 Z M12 46 C12 50.29 12 54.58 12 59 C12.33 59 12.66 59 13 59 C13 54.71 13 50.42 13 46 C12.67 46 12.34 46 12 46 Z M5 48 C6 50 6 50 6 50 Z " fill="#F08604" transform="translate(28,10)"/>
<path d="M0 0 C11.22 0 22.44 0 34 0 C34 3.63 34 7.26 34 11 C22.78 11 11.56 11 0 11 C0 7.37 0 3.74 0 0 Z " fill="#FFFFFF" transform="translate(37,94)"/>
<path d="M0 0 C4.69969504 1.82417255 8.04073537 6.16989492 11.54101562 9.68652344 C13.02335668 11.1698402 14.52576356 12.63053178 16.03051758 14.09106445 C16.9631543 15.02112305 17.89579102 15.95118164 18.85668945 16.90942383 C19.71625244 17.76189697 20.57581543 18.61437012 21.46142578 19.49267578 C23.2121582 21.85864258 23.2121582 21.85864258 23.11328125 24.02734375 C21.90855639 26.47563451 20.22314173 28.04227036 18.2121582 29.85864258 C14.44611951 28.29581276 12.07576669 25.95229507 9.2277832 23.06958008 C8.76732605 22.60629303 8.3068689 22.14300598 7.8324585 21.66567993 C6.37090742 20.19298359 4.91648652 18.71346855 3.4621582 17.23364258 C2.46913209 16.23057936 1.47564731 15.22797001 0.48168945 14.22583008 C-1.9468212 11.77533422 -4.36898855 9.31867588 -6.7878418 6.85864258 C-3.33718931 -0.26385807 -3.33718931 -0.26385807 0 0 Z " fill="#FFFFFF" transform="translate(83.787841796875,0.141357421875)"/>
<path d="M0 0 C5.18010355 2.50961538 5.18010355 2.50961538 7 5 C6.54776999 10.71965523 0.9844121 14.53428723 -2.82788086 18.32885742 C-4.31119762 19.81119848 -5.7718892 21.31360536 -7.23242188 22.81835938 C-8.16248047 23.75099609 -9.09253906 24.68363281 -10.05078125 25.64453125 C-10.90325439 26.50409424 -11.75572754 27.36365723 -12.6340332 28.24926758 C-15 30 -15 30 -17.16870117 29.90112305 C-19.61699193 28.69639819 -21.18362778 27.01098352 -23 25 C-21.43717018 21.23396131 -19.0936525 18.86360849 -16.2109375 16.015625 C-15.74765045 15.55516785 -15.2843634 15.09471069 -14.80703735 14.62030029 C-13.33434102 13.15874922 -11.85482597 11.70432832 -10.375 10.25 C-9.37193678 9.25697389 -8.36932743 8.26348911 -7.3671875 7.26953125 C-4.91669165 4.84102059 -2.4600333 2.41885325 0 0 Z " fill="#FFFFFF" transform="translate(23,0)"/>
</svg>
