<?xml version="1.0" encoding="UTF-8"?>
<svg version="1.1" xmlns="http://www.w3.org/2000/svg" width="99" height="105">
<path d="M0 0 C5.28 0 10.56 0 16 0 C16.495 4.95 16.495 4.95 17 10 C21.54710827 10.8744439 23.9593569 11.22932033 28 9 C29.87109375 9.10546875 29.87109375 9.10546875 32 10 C33.9921875 12.36328125 33.9921875 12.36328125 35.875 15.3125 C36.51179688 16.27800781 37.14859375 17.24351563 37.8046875 18.23828125 C39 21 39 21 38.35546875 23.2734375 C37 25 37 25 34.4375 26.3125 C31.58889413 27.87568682 31.58889413 27.87568682 31.1875 31.6875 C31.0946875 33.3271875 31.0946875 33.3271875 31 35 C31.598125 35.28875 32.19625 35.5775 32.8125 35.875 C35 37 35 37 38 39 C37.68383092 45.16529701 34.50784939 49.17268433 31 54 C28.43431037 53.49801725 25.90482398 52.97507295 23.375 52.3125 C20.73640217 51.70014522 20.73640217 51.70014522 18 54 C17.20562077 56.18505129 17.20562077 56.18505129 16.8125 58.625 C16.544375 60.06875 16.27625 61.5125 16 63 C10.72 63 5.44 63 0 63 C-0.42317708 60.72135417 -0.84635417 58.44270833 -1.26953125 56.1640625 C-1.87544942 53.64179359 -1.87544942 53.64179359 -5 52 C-7.39388923 52.27802838 -7.39388923 52.27802838 -10 53 C-11.9984471 53.34252053 -13.99831024 53.67696869 -16 54 C-17.01034498 52.25595212 -18.00792422 50.50450439 -19 48.75 C-19.8353125 47.28820312 -19.8353125 47.28820312 -20.6875 45.796875 C-22 43 -22 43 -22 39 C-21.030625 38.401875 -20.06125 37.80375 -19.0625 37.1875 C-15.62028572 35.23781277 -15.62028572 35.23781277 -15.125 31.25 C-15.08375 30.1775 -15.0425 29.105 -15 28 C-16.175625 27.566875 -16.175625 27.566875 -17.375 27.125 C-20 26 -20 26 -22 24 C-21.65082368 20.22254703 -20.32850651 17.4361522 -18.4375 14.1875 C-17.98246094 13.39730469 -17.52742188 12.60710938 -17.05859375 11.79296875 C-16.70925781 11.20128906 -16.35992187 10.60960937 -16 10 C-12.53058454 10.45822468 -9.32604951 10.89131683 -6 12 C-3.3430809 11.12085312 -3.3430809 11.12085312 -1 10 C-0.67 6.7 -0.34 3.4 0 0 Z M-1.8125 24.6875 C-3.56739404 28.10492524 -3.64208928 31.29015084 -3 35 C-1.27707034 38.44585933 0.03878709 40.40248927 3.3125 42.4375 C6.90048416 43.18847343 9.44476699 42.88880825 13 42 C15.70567626 40.17660948 17.53728718 38.92542564 19 36 C19.53118173 32.20584481 19.85089348 28.53668822 17.953125 25.109375 C16.17889137 22.9594213 14.50728754 21.25364377 12 20 C5.8538373 19.53613866 2.66273185 20.52090483 -1.8125 24.6875 Z " fill="#F08604" transform="translate(22,42)"/>
<path d="M0 0 C4.95 0 9.9 0 15 0 C15.495 3.96 15.495 3.96 16 8 C18.23259665 9.22772827 18.23259665 9.22772827 21 10 C22.68577711 9.38325228 24.35448038 8.71727778 26 8 C27.9765625 8.1640625 27.9765625 8.1640625 30 9 C31.51953125 10.92578125 31.51953125 10.92578125 32.8125 13.3125 C33.25207031 14.09238281 33.69164062 14.87226563 34.14453125 15.67578125 C35.11858922 18.32219444 35.09467869 19.42890851 34 22 C33.34 22.433125 32.68 22.86625 32 23.3125 C29.60758753 24.9770579 29.60758753 24.9770579 29.25 28.6875 C29.1675 29.780625 29.085 30.87375 29 32 C29.78375 32.2475 30.5675 32.495 31.375 32.75 C34 34 34 34 35.33203125 35.75390625 C36 38 36 38 34.98828125 40.54296875 C34.43527344 41.41566406 33.88226563 42.28835937 33.3125 43.1875 C32.77238281 44.06792969 32.23226562 44.94835938 31.67578125 45.85546875 C30 48 30 48 27 49 C26.4225 48.67 25.845 48.34 25.25 48 C21.98560017 46.54915563 19.43155506 47.34008557 16 48 C15.67 50.97 15.34 53.94 15 57 C10.05 57 5.1 57 0 57 C-0.33 54.03 -0.66 51.06 -1 48 C-5.94367454 46.79422572 -9.20862412 47.3709322 -14 49 C-14.98635837 47.58833114 -15.96381255 46.17043816 -16.9375 44.75 C-17.48277344 43.96109375 -18.02804688 43.1721875 -18.58984375 42.359375 C-19.89622441 40.17363007 -20.54980511 38.4846199 -21 36 C-20.01 35.278125 -19.02 34.55625 -18 33.8125 C-15.8236446 31.9729615 -15.08796006 31.2932002 -14.25 28.5 C-15.40063084 24.66456388 -17.79938149 23.33378433 -21 21 C-20.34215037 17.70319035 -19.10579427 15.15882078 -17.4375 12.25 C-16.75494141 11.05117188 -16.75494141 11.05117188 -16.05859375 9.828125 C-15.70925781 9.22484375 -15.35992187 8.6215625 -15 8 C-9.29288703 8.90794979 -9.29288703 8.90794979 -6.8125 9.6875 C-4.6628692 10.27213937 -4.6628692 10.27213937 -2 8 C-1.21011855 6.04614933 -1.21011855 6.04614933 -0.8125 3.875 C-0.544375 2.59625 -0.27625 1.3175 0 0 Z M-2 21 C-4.59036348 24.41457004 -4.43108741 27.83282171 -4 32 C-2.27022143 35.39549127 -0.93208897 37.42059334 2.3125 39.4375 C7.10070625 40.4396827 10.66397067 39.83130714 14.8125 37.25 C17.18962443 34.80495772 18.21208092 33.30926012 19 30 C18.88150544 24.43075548 16.69717399 21.87752395 13 18 C7.31738726 15.15869363 2.55183234 17.18916362 -2 21 Z " fill="#FFFFFF" transform="translate(63,0)"/>
</svg>
