<svg width="33" height="32" viewBox="0 0 33 32" fill="none" xmlns="http://www.w3.org/2000/svg">
<path d="M27.3243 27.2637H22.5727V19.8389C22.5727 18.0683 22.541 15.7891 20.1014 15.7891C17.6266 15.7891 17.2479 17.7182 17.2479 19.71V27.2632H12.4963V11.9948H17.0578V14.0813H17.1217C17.5782 13.3025 18.2379 12.6619 19.0304 12.2275C19.823 11.7932 20.7188 11.5815 21.6224 11.615C26.4384 11.615 27.3263 14.7757 27.3263 18.8877L27.3243 27.2637ZM7.13486 9.90768C6.58949 9.90777 6.05633 9.74651 5.60282 9.44427C5.1493 9.14203 4.79583 8.71239 4.58703 8.20969C4.37824 7.70698 4.32352 7.15379 4.42982 6.62007C4.53612 6.08634 4.79866 5.59606 5.18423 5.21121C5.56979 4.82636 6.06107 4.56423 6.59594 4.45797C7.13081 4.35171 7.68524 4.4061 8.18913 4.61425C8.69302 4.8224 9.12373 5.17497 9.4268 5.62737C9.72988 6.07977 9.8917 6.61169 9.8918 7.15585C9.89186 7.51716 9.82059 7.87494 9.68208 8.20878C9.54356 8.54261 9.34053 8.84595 9.08452 9.10148C8.82852 9.35701 8.52456 9.55973 8.19003 9.69805C7.85551 9.83638 7.49697 9.90761 7.13486 9.90768ZM9.51067 27.2637H4.75409V11.9948H9.51067V27.2637ZM29.6932 0.00218001H2.36641C1.74617 -0.00480394 1.1485 0.234197 0.70477 0.666662C0.261045 1.09913 0.00756971 1.68968 0 2.30854V29.6881C0.00731063 30.3072 0.260637 30.8982 0.704347 31.3311C1.14806 31.764 1.74586 32.0035 2.36641 31.9969H29.6932C30.315 32.0047 30.9145 31.7659 31.3599 31.333C31.8054 30.9001 32.0604 30.3085 32.069 29.6881V2.30657C32.0602 1.68647 31.805 1.09525 31.3595 0.662798C30.914 0.230343 30.3147 -0.00797451 29.6932 0.000203744" fill="#F08705"/>
</svg>
