<svg width="24" height="24" viewBox="0 0 24 24" fill="none" xmlns="http://www.w3.org/2000/svg">
<path d="M14.0727 1.73304L16.1905 5.99203C16.4759 6.58103 17.2419 7.13984 17.8877 7.26066L21.7178 7.89498C24.166 8.30275 24.7368 10.0849 22.9795 11.867L19.9905 14.8725C19.4948 15.3709 19.2095 16.3525 19.3747 17.0624L20.2308 20.7776C20.9067 23.7076 19.3447 24.8554 16.7763 23.3149L13.1865 21.1703C12.5407 20.7776 11.4593 20.7776 10.8134 21.1703L7.22367 23.3149C4.65528 24.8403 3.09324 23.7076 3.76913 20.7776L4.62527 17.0624C4.79049 16.3676 4.50511 15.386 4.00945 14.8725L1.02053 11.867C-0.736789 10.1 -0.166042 8.31786 2.28219 7.89498L6.11222 7.26066C6.75807 7.15494 7.52409 6.58103 7.80946 5.99203L9.92726 1.73304C11.0537 -0.577681 12.9162 -0.577681 14.0727 1.73304Z" fill="#F08705"/>
</svg>
