<svg width="51" height="52" viewBox="0 0 51 52" fill="none" xmlns="http://www.w3.org/2000/svg">
<path opacity="0.4" d="M34.4038 4.3335H16.5962C8.86125 4.3335 4.25 9.03516 4.25 16.9218V35.0568C4.25 42.9652 8.86125 47.6668 16.5962 47.6668H34.3825C42.1175 47.6668 46.7287 42.9652 46.7287 35.0785V16.9218C46.75 9.03516 42.1388 4.3335 34.4038 4.3335Z" fill="#F08705"/>
<path d="M39.3763 24.8517L30.26 15.5567C29.6437 14.9284 28.6238 14.9284 28.0075 15.5567C27.3913 16.185 27.3913 17.225 28.0075 17.8534L34.4038 24.375H12.75C11.8788 24.375 11.1562 25.1117 11.1562 26C11.1562 26.8884 11.8788 27.625 12.75 27.625H34.4038L28.0075 34.1467C27.3913 34.775 27.3913 35.815 28.0075 36.4434C28.3263 36.7684 28.73 36.92 29.1338 36.92C29.5375 36.92 29.9412 36.7684 30.26 36.4434L39.3763 27.1484C39.6738 26.845 39.8438 26.4334 39.8438 26C39.8438 25.5667 39.6738 25.155 39.3763 24.8517Z" fill="#F08705"/>
</svg>
