<svg width="62" height="62" viewBox="0 0 62 62" fill="none" xmlns="http://www.w3.org/2000/svg">
<path opacity="0.4" d="M38.75 10.3334H23.25C16.12 10.3334 10.3333 16.12 10.3333 23.25V38.75C10.3333 45.88 16.12 51.6667 23.25 51.6667H38.75C45.88 51.6667 51.6667 45.88 51.6667 38.75V23.25C51.6667 16.12 45.88 10.3334 38.75 10.3334ZM44.5883 36.8384C44.5883 41.1267 41.1267 44.5884 36.8383 44.5884H25.1617C20.8733 44.5884 17.4117 41.1267 17.4117 36.8384V25.1617C17.4117 20.8734 20.8733 17.4117 25.1617 17.4117H36.8125C41.1008 17.4117 44.5625 20.8734 44.5625 25.1617V36.8384H44.5883Z" fill="#F08705"/>
<path d="M23.405 7.10413V10.3333H23.25C21.9583 10.3333 20.7183 10.5141 19.53 10.8758V7.10413C19.53 6.04496 20.3825 5.16663 21.4675 5.16663C22.5267 5.16663 23.405 6.04496 23.405 7.10413Z" fill="#F08705"/>
<path d="M32.9375 7.10413V10.3333H29.0625V7.10413C29.0625 6.04496 29.9408 5.16663 31 5.16663C32.0592 5.16663 32.9375 6.04496 32.9375 7.10413Z" fill="#F08705"/>
<path d="M42.4959 7.10413V10.8758C41.3075 10.5141 40.0417 10.3333 38.75 10.3333H38.6208V7.10413C38.6208 6.04496 39.4992 5.16663 40.5583 5.16663C41.6175 5.16663 42.4959 6.04496 42.4959 7.10413Z" fill="#F08705"/>
<path d="M56.8333 21.4417C56.8333 22.5267 55.9808 23.3792 54.8958 23.3792H51.6667V23.25C51.6667 21.9583 51.4858 20.6925 51.1242 19.5042H54.8958C55.9808 19.5042 56.8333 20.3825 56.8333 21.4417Z" fill="#F08705"/>
<path d="M56.8333 31C56.8333 32.0592 55.9808 32.9375 54.8958 32.9375H51.6667V29.0625H54.8958C55.9808 29.0625 56.8333 29.915 56.8333 31Z" fill="#F08705"/>
<path d="M56.8333 40.5583C56.8333 41.6175 55.9808 42.4959 54.8958 42.4959H51.1242C51.4858 41.3075 51.6667 40.0417 51.6667 38.75V38.6208H54.8958C55.9808 38.6208 56.8333 39.4733 56.8333 40.5583Z" fill="#F08705"/>
<path d="M42.4959 51.1241V54.8958C42.4959 55.955 41.6175 56.8333 40.5583 56.8333C39.4992 56.8333 38.6208 55.955 38.6208 54.8958V51.6666H38.75C40.0417 51.6666 41.3075 51.4858 42.4959 51.1241Z" fill="#F08705"/>
<path d="M32.9633 51.6666V54.8958C32.9633 55.955 32.085 56.8333 31.0258 56.8333C29.9408 56.8333 29.0883 55.955 29.0883 54.8958V51.6666H32.9633Z" fill="#F08705"/>
<path d="M23.405 51.6666V54.8958C23.405 55.955 22.5267 56.8333 21.4675 56.8333C20.3825 56.8333 19.53 55.955 19.53 54.8958V51.1241C20.7183 51.4858 21.9583 51.6666 23.25 51.6666H23.405Z" fill="#F08705"/>
<path d="M10.8758 19.5042C10.5142 20.6925 10.3333 21.9583 10.3333 23.25V23.3792H7.10416C6.04499 23.3792 5.16666 22.5267 5.16666 21.4417C5.16666 20.3825 6.04499 19.5042 7.10416 19.5042H10.8758Z" fill="#F08705"/>
<path d="M10.3333 29.0625V32.9375H7.10416C6.04499 32.9375 5.16666 32.0592 5.16666 31C5.16666 29.915 6.04499 29.0625 7.10416 29.0625H10.3333Z" fill="#F08705"/>
<path d="M10.8758 42.4959H7.10416C6.04499 42.4959 5.16666 41.6175 5.16666 40.5583C5.16666 39.4733 6.04499 38.6208 7.10416 38.6208H10.3333V38.75C10.3333 40.0417 10.5142 41.3075 10.8758 42.4959Z" fill="#F08705"/>
<path d="M44.5883 25.1616V36.8125C44.5883 41.1008 41.1267 44.5625 36.8384 44.5625H25.1617C20.8733 44.5625 17.4117 41.1008 17.4117 36.8125V25.1616C17.4117 20.8733 20.8733 17.4116 25.1617 17.4116H36.8125C41.1008 17.4116 44.5883 20.8991 44.5883 25.1616Z" fill="#F08705"/>
</svg>
