<svg width="51" height="52" viewBox="0 0 51 52" fill="none" xmlns="http://www.w3.org/2000/svg">
<path opacity="0.4" d="M16.5962 4.3335H34.3825C42.1388 4.3335 46.75 9.03516 46.75 16.9218V35.0568C46.75 42.9435 42.1388 47.6452 34.4038 47.6452H16.5962C8.86125 47.6668 4.25 42.9652 4.25 35.0785V16.9218C4.25 9.03516 8.86125 4.3335 16.5962 4.3335Z" fill="#F08705"/>
<path d="M11.6237 24.8517L20.74 15.5567C21.3563 14.9284 22.3762 14.9284 22.9925 15.5567C23.6087 16.185 23.6087 17.225 22.9925 17.8534L16.5963 24.375H38.25C39.1213 24.375 39.8438 25.1117 39.8438 26C39.8438 26.8884 39.1213 27.625 38.25 27.625H16.5963L22.9925 34.1467C23.6087 34.775 23.6087 35.815 22.9925 36.4434C22.6737 36.7684 22.27 36.92 21.8663 36.92C21.4625 36.92 21.0588 36.7684 20.74 36.4434L11.6237 27.1484C11.3262 26.845 11.1562 26.4334 11.1562 26C11.1562 25.5667 11.3262 25.155 11.6237 24.8517Z" fill="#F08705"/>
</svg>
